<svg xmlns="http://www.w3.org/2000/svg" width="600" height="1000" viewBox="0 0 600 1000"><defs><linearGradient id="g" x1="0" y1="0" x2="1" y2="1"><stop offset="0" stop-color="#f5f3ee"/><stop offset="1" stop-color="#f5f3ee" stop-opacity=".78"/></linearGradient></defs><path d="M110 85Q170 35 230 65L300 110L370 65Q430 35 490 85L570 245L485 285L450 220V740Q300 790 150 740V220L115 285L30 245Z" fill="url(#g)" stroke="#111" stroke-opacity=".14" stroke-width="5"/><path d="M230 65Q300 125 370 65L350 135Q300 175 250 135Z" fill="#ffffff22"/><path d="M300 115V720" stroke="#fff" stroke-opacity=".22" stroke-width="5"/><circle cx="300" cy="260" r="5" fill="#fff" opacity=".65"/><circle cx="300" cy="340" r="5" fill="#fff" opacity=".65"/><circle cx="300" cy="420" r="5" fill="#fff" opacity=".65"/></svg>